<?xml version="1.0" encoding="UTF-8" standalone="no"?>
<!-- Created with Inkscape (http://www.inkscape.org/) -->

<svg
   xmlns:dc="http://purl.org/dc/elements/1.1/"
   xmlns:cc="http://creativecommons.org/ns#"
   xmlns:rdf="http://www.w3.org/1999/02/22-rdf-syntax-ns#"
   xmlns:svg="http://www.w3.org/2000/svg"
   xmlns="http://www.w3.org/2000/svg"
   xmlns:sodipodi="http://sodipodi.sourceforge.net/DTD/sodipodi-0.dtd"
   xmlns:inkscape="http://www.inkscape.org/namespaces/inkscape"
   width="600"
   height="300"
   viewBox="0 0 600.00001 300"
   id="svg2"
   version="1.1"
   inkscape:version="0.91 r13725"
   sodipodi:docname="wordmark.svg">
  <defs
     id="defs4" />
  <sodipodi:namedview
     id="base"
     pagecolor="#ffffff"
     bordercolor="#666666"
     borderopacity="1.0"
     inkscape:pageopacity="0.0"
     inkscape:pageshadow="2"
     inkscape:zoom="0.49497475"
     inkscape:cx="-231.64727"
     inkscape:cy="233.75052"
     inkscape:document-units="px"
     inkscape:current-layer="layer1"
     showgrid="true"
     units="px"
     inkscape:snap-bbox="true"
     inkscape:bbox-paths="true"
     inkscape:bbox-nodes="true"
     inkscape:snap-bbox-edge-midpoints="true"
     inkscape:snap-bbox-midpoints="true"
     inkscape:object-paths="true"
     inkscape:snap-intersection-paths="true"
     inkscape:object-nodes="true"
     inkscape:snap-smooth-nodes="true"
     inkscape:snap-midpoints="true"
     inkscape:snap-object-midpoints="true"
     inkscape:snap-center="true"
     inkscape:snap-text-baseline="true"
     inkscape:snap-page="true"
     inkscape:window-width="1280"
     inkscape:window-height="755"
     inkscape:window-x="0"
     inkscape:window-y="1"
     inkscape:window-maximized="1">
    <inkscape:grid
       type="xygrid"
       id="grid4142" />
  </sodipodi:namedview>
  <metadata
     id="metadata7">
    <rdf:RDF>
      <cc:Work
         rdf:about="">
        <dc:format>image/svg+xml</dc:format>
        <dc:type
           rdf:resource="http://purl.org/dc/dcmitype/StillImage" />
        <dc:title></dc:title>
      </cc:Work>
    </rdf:RDF>
  </metadata>
  <g
     inkscape:label="Layer 1"
     inkscape:groupmode="layer"
     id="layer1"
     transform="translate(0,-752.36216)">
    <rect
       y="1142.3622"
       x="-11.5"
       height="139.99998"
       width="646"
       id="rect4217"
       style="fill:#ffffff;fill-opacity:1;stroke:none;stroke-opacity:1"
       inkscape:export-xdpi="90"
       inkscape:export-ydpi="90" />
    <path
       style="fill:#0077c2;fill-opacity:1;stroke:none;stroke-opacity:1"
       d="M -20 70 L -20 210 L 505.58984 210 L 523.89258 100.18359 L 545.75195 100.18359 L 543.56641 113.61133 L 544.50391 113.61133 C 545.82241 111.4254 547.59187 109.22258 549.8125 107.00195 C 552.06782 104.78133 554.82634 102.92558 558.08789 101.43359 C 561.38414 99.906918 565.25211 99.142578 569.69336 99.142578 C 575.5572 99.142578 580.67501 100.6693 585.04688 103.72266 C 589.45343 106.74132 592.62726 111.30343 594.57031 117.41016 C 596.51336 123.48218 596.72199 131.09969 595.19531 140.25977 C 593.73803 149.17697 591.0497 156.70624 587.12891 162.84766 C 583.24281 168.95438 578.57638 173.58669 573.12891 176.74414 C 567.71613 179.86689 561.97242 181.42773 555.90039 181.42773 C 551.59793 181.42773 548.07702 180.71556 545.33594 179.29297 C 542.59485 177.87038 540.44419 176.08483 538.88281 173.93359 C 537.35613 171.74766 536.26276 169.54289 535.60352 167.32227 L 534.82227 167.32227 L 527.76172 210 L 626 210 L 626 70 L -20 70 z M 52.058594 99.142578 C 59.969576 99.142578 65.883893 100.87793 69.804688 104.34766 C 73.725481 107.78269 76.207128 112.36284 77.248047 118.08789 L 65.589844 121.21094 C 65.173476 119.33728 64.445216 117.53173 63.404297 115.79688 C 62.398076 114.02731 60.837238 112.58883 58.720703 111.47852 C 56.638866 110.3335 53.792112 109.75977 50.183594 109.75977 C 45.291275 109.75977 41.042112 110.88725 37.433594 113.14258 C 33.825075 115.3632 31.760694 118.19192 31.240234 121.62695 C 30.719775 124.64561 31.413914 127.05707 33.322266 128.86133 C 35.230617 130.66559 38.422486 132.14014 42.898438 133.28516 L 54.347656 136.19922 C 67.948996 139.70365 73.847228 146.92192 72.042969 157.85156 C 71.279628 162.43161 69.285442 166.5243 66.058594 170.13281 C 62.831745 173.74133 58.702982 176.58808 53.671875 178.66992 C 48.640767 180.75176 43.037446 181.79102 36.861328 181.79102 C 28.638069 181.79102 22.148061 180.02155 17.394531 176.48242 C 12.641002 172.9086 10.109151 167.73863 9.796875 160.97266 L 22.080078 158.05859 C 22.704629 166.66352 28.117355 170.9668 38.318359 170.9668 C 44.043413 170.9668 48.814157 169.75108 52.630859 167.32227 C 56.447562 164.85876 58.616259 161.90964 59.136719 158.47461 C 60.177637 152.81896 56.845377 149.07138 49.142578 147.23242 L 36.443359 144.11133 C 29.365111 142.34177 24.403772 139.6354 21.558594 135.99219 C 18.748113 132.34897 17.81122 127.76882 18.748047 122.25195 C 19.511388 117.74131 21.455368 113.75098 24.578125 110.28125 C 27.735578 106.81152 31.68983 104.08711 36.443359 102.10938 C 41.231586 100.13162 46.437632 99.142578 52.058594 99.142578 z M 124.72852 99.142578 C 128.89219 99.142578 132.90055 99.836715 136.75195 101.22461 C 140.60335 102.6125 143.93366 104.86748 146.74414 107.99023 C 149.55462 111.07829 151.51469 115.17294 152.625 120.27344 C 153.73531 125.37394 153.66707 131.65337 152.41797 139.11328 L 151.58398 144.31836 L 93.449219 144.31836 C 91.957235 154.10299 93.10276 160.95616 96.884766 164.87695 C 100.66677 168.79775 106.40853 170.75781 114.11133 170.75781 C 119.03834 170.75781 123.37574 169.71661 127.12305 167.63477 C 130.90505 165.55293 133.92436 162.43125 136.17969 158.26758 L 147.42188 161.59766 C 144.54199 167.63498 139.99598 172.51004 133.78516 176.22266 C 127.57434 179.93527 120.39215 181.79102 112.23828 181.79102 C 104.57018 181.79102 98.238597 180.09175 93.242188 176.69141 C 88.245776 173.25638 84.757042 168.4676 82.779297 162.32617 C 80.801551 156.15006 80.490555 148.96786 81.84375 140.7793 C 83.196944 132.59074 85.88527 125.37442 89.910156 119.12891 C 93.935042 112.8487 98.948543 107.9556 104.95117 104.45117 C 110.95381 100.91205 117.54618 99.142578 124.72852 99.142578 z M 200.65234 99.142578 C 203.21994 99.142578 206.11885 99.455523 209.3457 100.08008 C 212.57255 100.66993 215.58991 101.90174 218.40039 103.77539 C 221.24557 105.64904 223.38015 108.47581 224.80273 112.25781 C 226.26002 116.03982 226.46865 121.10548 225.42773 127.45508 L 216.68359 180.12695 L 204.40039 180.12695 L 206.27344 169.30078 L 205.65039 169.30078 C 204.54008 171.03565 202.83885 172.89139 200.54883 174.86914 C 198.29351 176.84688 195.43067 178.53008 191.96094 179.91797 C 188.5259 181.30586 184.48342 182 179.83398 182 C 174.76818 182 170.32842 181.04507 166.51172 179.13672 C 162.69501 177.19367 159.8663 174.40103 158.02734 170.75781 C 156.18838 167.0799 155.68484 162.63819 156.51758 157.43359 C 157.31561 152.85355 158.86037 149.14205 161.15039 146.29688 C 163.44042 143.417 166.21697 141.16202 169.47852 139.53125 C 172.77476 137.86578 176.3137 136.63398 180.0957 135.83594 C 183.9124 135.0032 187.71018 134.36122 191.49219 133.91016 C 196.4192 133.2856 200.42757 132.8001 203.51562 132.45312 C 206.60368 132.10616 208.92885 131.53241 210.49023 130.73438 C 212.05161 129.93634 213.00459 128.56609 213.35156 126.62305 L 213.35156 126.20703 C 214.1843 121.10653 213.5082 117.13424 211.32227 114.28906 C 209.13634 111.40919 205.23424 109.96875 199.61328 109.96875 C 193.78413 109.96875 188.90907 111.25271 184.98828 113.82031 C 181.06748 116.38791 178.16858 119.1284 176.29492 122.04297 L 165.4707 117.87891 C 168.31588 113.02129 171.71639 109.2396 175.67188 106.5332 C 179.62737 103.79212 183.77221 101.88421 188.10938 100.80859 C 192.44654 99.698284 196.62746 99.142578 200.65234 99.142578 z M 281.00195 99.142578 C 289.01703 99.142578 295.10586 101.62422 299.26953 106.58594 C 303.4679 111.54765 304.73383 119.12907 303.06836 129.33008 L 294.5332 180.12695 L 282.25 180.12695 L 290.57812 130.16211 C 291.61905 123.9166 290.80255 119.02349 288.13086 115.48438 C 285.49387 111.94524 281.31294 110.17578 275.58789 110.17578 C 269.65465 110.17578 264.45056 112.08564 259.97461 115.90234 C 255.53336 119.68435 252.68856 125.061 251.43945 132.03516 L 243.52734 180.12695 L 231.24609 180.12695 L 244.56836 100.18359 L 256.43555 100.18359 L 254.35352 112.67578 L 255.39453 112.67578 C 257.89274 108.61619 261.2752 105.35413 265.54297 102.89062 C 269.81074 100.39243 274.96462 99.142578 281.00195 99.142578 z M 364.75781 99.142578 C 370.17059 99.142578 374.57818 100.51282 377.97852 103.25391 C 381.37885 105.96029 383.355 109.63962 383.91016 114.28906 L 384.74414 114.28906 C 387.10356 109.67432 390.66054 105.99499 395.41406 103.25391 C 400.16759 100.51282 405.476 99.142578 411.33984 99.142578 C 418.73036 99.142578 424.38584 101.51991 428.30664 106.27344 C 432.22743 110.99227 433.45924 117.68895 432.00195 126.36328 L 423.04883 180.12695 L 400.87891 180.12695 L 409.20508 130.73438 C 409.89902 126.29312 409.24096 122.96281 407.22852 120.74219 C 405.25077 118.52156 402.49226 117.41016 398.95312 117.41016 C 394.92825 117.41016 391.5799 118.69412 388.9082 121.26172 C 386.23651 123.79462 384.58744 127.14297 383.96289 131.30664 L 375.6875 180.12695 L 354.19336 180.12695 L 362.625 130.26562 C 363.21485 126.34483 362.57287 123.22316 360.69922 120.89844 C 358.86026 118.57372 356.10174 117.41016 352.42383 117.41016 C 348.74591 117.41016 345.43169 118.76432 342.48242 121.4707 C 339.56785 124.1424 337.78034 127.69937 337.12109 132.14062 L 329.00195 180.12695 L 306.88281 180.12695 L 320.20703 100.18359 L 341.28516 100.18359 L 338.99609 114.28906 L 339.88086 114.28906 C 342.34437 109.57023 345.74486 105.87483 350.08203 103.20312 C 354.41919 100.49674 359.31034 99.142578 364.75781 99.142578 z M 481.95508 99.142578 C 492.39896 99.142578 500.37961 101.93522 505.89648 107.52148 C 511.44805 113.10774 513.66891 120.51661 512.55859 129.74609 L 491.6875 129.74609 C 491.75689 125.79061 490.73372 122.58069 488.61719 120.11719 C 486.53535 117.65367 483.48192 116.42188 479.45703 116.42188 C 474.25244 116.42187 469.74053 118.48625 465.92383 122.61523 C 462.10712 126.74421 459.59136 132.59029 458.37695 140.1543 C 457.09315 147.7877 457.64886 153.70397 460.04297 157.90234 C 462.47178 162.06602 466.27151 164.14844 471.44141 164.14844 C 475.29281 164.14844 478.71135 162.98683 481.69531 160.66211 C 484.67928 158.3374 486.86407 155.05729 488.25195 150.82422 L 509.17383 150.82422 C 507.78594 156.93095 505.21997 162.30955 501.47266 166.95898 C 497.72535 171.60842 493.04088 175.23364 487.41992 177.83594 C 481.79896 180.40354 475.43131 181.6875 468.31836 181.6875 C 460.1298 181.6875 453.38095 179.95215 448.07227 176.48242 C 442.76358 172.978 439.05208 168.12097 436.93555 161.91016 C 434.85371 155.69934 434.4886 148.55126 435.8418 140.4668 C 437.1603 132.27824 439.91881 125.09604 444.11719 118.91992 C 448.35025 112.7091 453.69474 107.87012 460.14844 104.40039 C 466.60213 100.89596 473.8706 99.142578 481.95508 99.142578 z M 122.85547 110.17578 C 118.37952 110.17578 114.18056 111.35543 110.25977 113.71484 C 106.37367 116.03956 103.07748 119.00671 100.37109 122.61523 C 97.699404 126.22375 95.966006 129.91917 95.167969 133.70117 L 140.75977 133.70117 C 141.93947 126.9352 140.9163 121.33188 137.68945 116.89062 C 134.4973 112.41467 129.55205 110.17578 122.85547 110.17578 z M 559.5957 116.78711 C 554.25232 116.78711 549.7604 118.90365 546.11719 123.13672 C 542.47397 127.33509 540.0786 133.00666 538.93359 140.1543 C 537.78858 147.26724 538.31017 152.99292 540.49609 157.33008 C 542.71672 161.63254 546.49841 163.7832 551.8418 163.7832 C 557.32397 163.7832 561.83393 161.59842 565.37305 157.22656 C 568.94687 152.82001 571.34224 147.12846 572.55664 140.1543 C 573.66695 133.21484 573.14537 127.59543 570.99414 123.29297 C 568.8776 118.9558 565.07788 116.78711 559.5957 116.78711 z M 211.0625 139.94727 C 210.43795 140.57182 209.20615 141.14361 207.36719 141.66406 C 205.52823 142.14983 203.44581 142.58318 201.12109 142.96484 C 198.83107 143.31182 196.59414 143.62476 194.4082 143.90234 C 192.25697 144.14522 190.52163 144.35386 189.20312 144.52734 C 185.94158 144.94371 182.83599 145.61981 179.88672 146.55664 C 176.97215 147.45877 174.50853 148.82902 172.49609 150.66797 C 170.51835 152.47223 169.28654 154.93583 168.80078 158.05859 C 168.07213 162.32636 169.09531 165.55431 171.87109 167.74023 C 174.64687 169.89147 178.48073 170.9668 183.37305 170.9668 C 188.23067 170.9668 192.48178 170.01187 196.125 168.10352 C 199.80291 166.19517 202.75203 163.73156 204.97266 160.71289 C 207.22798 157.69422 208.63429 154.52039 209.18945 151.18945 L 211.0625 139.94727 z "
       transform="translate(0,752.36216)"
       id="rect4158"
       inkscape:export-xdpi="90"
       inkscape:export-ydpi="90" />
    <text
       sodipodi:linespacing="125%"
       id="text4144"
       y="712.48853"
       x="32.767326"
       style="font-style:normal;font-weight:normal;font-size:146.56137085px;line-height:125%;font-family:sans-serif;letter-spacing:0px;word-spacing:0px;fill:#000000;fill-opacity:1;stroke:none;stroke-width:1px;stroke-linecap:butt;stroke-linejoin:miter;stroke-opacity:1"
       xml:space="preserve"><tspan
         style="font-style:italic;font-variant:normal;font-weight:normal;font-stretch:normal;font-family:Inter;-inkscape-font-specification:'Inter Italic';letter-spacing:-8px"
         y="712.48853"
         x="32.767326"
         id="tspan4146"
         sodipodi:role="line">sean<tspan
   id="tspan4148"
   style="font-style:italic;font-variant:normal;font-weight:bold;font-stretch:normal;font-family:Inter;-inkscape-font-specification:'Inter Bold Italic';letter-spacing:-8px">mc</tspan></tspan></text>
    <rect
       y="442.36218"
       x="-20"
       height="139.99998"
       width="646"
       id="rect4160"
       style="fill:#808080;fill-opacity:0.8745098;stroke:none;stroke-opacity:1" />
    <text
       sodipodi:linespacing="125%"
       id="text4162"
       y="552.48853"
       x="6.7673264"
       style="font-style:normal;font-weight:normal;font-size:146.56137085px;line-height:125%;font-family:sans-serif;letter-spacing:0px;word-spacing:0px;fill:#000000;fill-opacity:1;stroke:none;stroke-width:1px;stroke-linecap:butt;stroke-linejoin:miter;stroke-opacity:1"
       xml:space="preserve"><tspan
         style="font-style:italic;font-variant:normal;font-weight:normal;font-stretch:normal;font-family:Inter;-inkscape-font-specification:'Inter Italic';letter-spacing:-8px"
         y="552.48853"
         x="6.7673264"
         id="tspan4164"
         sodipodi:role="line">sean<tspan
   id="tspan4166"
   style="font-style:italic;font-variant:normal;font-weight:bold;font-stretch:normal;font-family:Inter;-inkscape-font-specification:'Inter Bold Italic';letter-spacing:-8px">mcp</tspan></tspan></text>
    <path
       inkscape:export-ydpi="90"
       inkscape:export-xdpi="90"
       id="path4211"
       d="m -20,982.36216 0,140.00004 525.58984,0 18.30274,-109.8165 21.85937,0 -2.18554,13.4278 0.9375,0 c 1.3185,-2.1859 3.08796,-4.3888 5.30859,-6.6094 2.25532,-2.2206 5.01384,-4.0764 8.27539,-5.5684 3.29625,-1.5266 7.16422,-2.291 11.60547,-2.291 5.86384,0 10.98165,1.5268 15.35352,4.5801 4.40655,3.0187 7.58038,7.5808 9.52343,13.6875 1.94305,6.072 2.15168,13.6895 0.625,22.8496 -1.45728,8.9172 -4.14561,16.4465 -8.0664,22.5879 -3.8861,6.1067 -8.55253,10.739 -14,13.8965 -5.41278,3.1227 -11.15649,4.6836 -17.22852,4.6836 -4.30246,0 -7.82337,-0.7122 -10.56445,-2.1348 -2.74109,-1.4226 -4.89175,-3.2081 -6.45313,-5.3594 -1.52668,-2.1859 -2.62005,-4.3907 -3.27929,-6.6113 l -0.78125,0 -7.06055,42.6778 98.23828,0 0,-140.00004 -646,0 z m 72.058594,29.14254 c 7.910982,0 13.825299,1.7354 17.746094,5.2051 3.920793,3.435 6.40244,8.0152 7.443359,13.7402 l -11.658203,3.1231 c -0.416368,-1.8737 -1.144628,-3.6792 -2.185547,-5.4141 -1.006221,-1.7695 -2.567059,-3.208 -4.683594,-4.3183 -2.081837,-1.145 -4.928591,-1.7188 -8.537109,-1.7188 -4.892319,0 -9.141482,1.1275 -12.75,3.3828 -3.608519,2.2207 -5.6729,5.0494 -6.19336,8.4844 -0.520459,3.0187 0.17368,5.4301 2.082032,7.2344 1.908351,1.8042 5.10022,3.2788 9.576172,4.4238 l 11.449218,2.9141 c 13.60134,3.5044 19.499572,10.7227 17.695313,21.6523 -0.763341,4.5801 -2.757527,8.6728 -5.984375,12.2813 -3.226849,3.6085 -7.355612,6.4552 -12.386719,8.5371 -5.031108,2.0818 -10.634429,3.1211 -16.810547,3.1211 -8.223259,0 -14.713267,-1.7695 -19.466797,-5.3086 -4.753529,-3.5738 -7.28538,-8.7438 -7.597656,-15.5098 l 12.283203,-2.9141 c 0.624551,8.605 6.037277,12.9083 16.238281,12.9083 5.725054,0 10.495798,-1.2158 14.3125,-3.6446 3.816703,-2.4635 5.9854,-5.4126 6.50586,-8.8476 1.040918,-5.6557 -2.291342,-9.4033 -9.994141,-11.2422 l -12.699219,-3.1211 c -7.078248,-1.7696 -12.039587,-4.4759 -14.884765,-8.1191 -2.810481,-3.6433 -3.747374,-8.2234 -2.810547,-13.7403 0.763341,-4.5106 2.707321,-8.501 5.830078,-11.9707 3.157453,-3.4697 7.111705,-6.1941 11.865234,-8.1719 4.788227,-1.9777 9.994273,-2.9668 15.615235,-2.9668 z m 72.669926,0 c 4.16367,0 8.17203,0.6942 12.02343,2.0821 3.8514,1.3879 7.18171,3.6428 9.99219,6.7656 2.81048,3.0881 4.77055,7.1827 5.88086,12.2832 1.11031,5.1005 1.04207,11.3799 -0.20703,18.8398 l -0.83399,5.2051 -58.134761,0 c -1.491984,9.7846 -0.346459,16.6378 3.435547,20.5586 3.782004,3.9208 9.523764,5.8809 17.226564,5.8809 4.92701,0 9.26441,-1.0412 13.01172,-3.1231 3.782,-2.0818 6.80131,-5.2035 9.05664,-9.3672 l 11.24219,3.3301 c -2.87989,6.0373 -7.4259,10.9124 -13.63672,14.625 -6.21082,3.7126 -13.39301,5.5684 -21.54688,5.5684 -7.6681,0 -13.999683,-1.6993 -18.996092,-5.0996 -4.996412,-3.4351 -8.485146,-8.2238 -10.462891,-14.3653 -1.977746,-6.1761 -2.288742,-13.3583 -0.935547,-21.5468 1.353194,-8.1886 4.04152,-15.4049 8.066406,-21.6504 4.024886,-6.2802 9.038387,-11.1733 15.041014,-14.6778 6.00264,-3.5391 12.59501,-5.3086 19.77735,-5.3086 z m 75.92382,0 c 2.5676,0 5.46651,0.313 8.69336,0.9375 3.22685,0.5899 6.24421,1.8217 9.05469,3.6953 2.84518,1.8737 4.97976,4.7005 6.40234,8.4825 1.45729,3.782 1.66592,8.8476 0.625,15.1972 l -8.74414,52.6719 -12.2832,0 1.87305,-10.8262 -0.62305,0 c -1.11031,1.7349 -2.81154,3.5906 -5.10156,5.5684 -2.25532,1.9777 -5.11816,3.6609 -8.58789,5.0488 -3.43504,1.3879 -7.47752,2.0821 -12.12696,2.0821 -5.0658,0 -9.50556,-0.955 -13.32226,-2.8633 -3.81671,-1.9431 -6.64542,-4.7357 -8.48438,-8.3789 -1.83896,-3.6779 -2.3425,-8.1196 -1.50976,-13.3243 0.79803,-4.58 2.34279,-8.2915 4.63281,-11.1367 2.29003,-2.8798 5.06658,-5.1348 8.32813,-6.7656 3.29624,-1.6655 6.83518,-2.8973 10.61718,-3.6953 3.8167,-0.8327 7.61448,-1.4747 11.39649,-1.9258 4.92701,-0.6245 8.93538,-1.11 12.02343,-1.457 3.08806,-0.347 5.41323,-0.9207 6.97461,-1.7188 1.56138,-0.798 2.51436,-2.1682 2.86133,-4.1113 l 0,-0.416 c 0.83274,-5.1005 0.15664,-9.0728 -2.02929,-11.918 -2.18593,-2.8798 -6.08803,-4.3203 -11.70899,-4.3203 -5.82915,0 -10.70421,1.284 -14.625,3.8516 -3.9208,2.5676 -6.8197,5.3081 -8.69336,8.2226 l -10.82422,-4.164 c 2.84518,-4.8576 6.24569,-8.6393 10.20118,-11.3457 3.95549,-2.7411 8.10033,-4.649 12.4375,-5.7247 4.33716,-1.1103 8.51808,-1.666 12.54296,-1.666 z m 80.34961,0 c 8.01508,0 14.10391,2.4817 18.26758,7.4434 4.19837,4.9617 5.4643,12.5431 3.79883,22.7441 l -8.53516,50.7969 -12.2832,0 8.32812,-49.9648 c 1.04093,-6.2455 0.22443,-11.1386 -2.44726,-14.6778 -2.63699,-3.5391 -6.81792,-5.3086 -12.54297,-5.3086 -5.93324,0 -11.13733,1.9099 -15.61328,5.7266 -4.44125,3.782 -7.28605,9.1587 -8.53516,16.1328 l -7.91211,48.0918 -12.28125,0 13.32227,-79.9434 11.86719,0 -2.08203,12.4922 1.04101,0 c 2.49821,-4.0595 5.88067,-7.3216 10.14844,-9.7851 4.26777,-2.4982 9.42165,-3.7481 15.45898,-3.7481 z m 83.75586,0 c 5.41278,0 9.82037,1.3703 13.22071,4.1114 3.40033,2.7063 5.37648,6.3857 5.93164,11.0351 l 0.83398,0 c 2.35942,-4.6147 5.9164,-8.2941 10.66992,-11.0351 4.75353,-2.7411 10.06194,-4.1114 15.92578,-4.1114 7.39052,0 13.046,2.3774 16.9668,7.1309 3.92079,4.7188 5.1526,11.4155 3.69531,20.0898 l -8.95312,53.7637 -22.16992,0 8.32617,-49.3926 c 0.69394,-4.4412 0.0359,-7.7715 -1.97656,-9.9922 -1.97775,-2.2206 -4.73626,-3.332 -8.2754,-3.332 -4.02487,0 -7.37322,1.284 -10.04492,3.8516 -2.67169,2.5329 -4.32076,5.8812 -4.94531,10.0449 l -8.27539,48.8203 -21.49414,0 8.43164,-49.8613 c 0.58985,-3.9208 -0.0521,-7.0425 -1.92578,-9.3672 -1.83896,-2.3247 -4.59748,-3.4883 -8.27539,-3.4883 -3.67792,0 -6.99214,1.3542 -9.94141,4.0606 -2.91457,2.6717 -4.70208,6.2286 -5.36133,10.6699 l -8.11914,47.9863 -22.11914,0 13.32422,-79.9434 21.07813,0 -2.28907,14.1055 0.88477,0 c 2.46351,-4.7188 5.864,-8.4142 10.20117,-11.0859 4.33716,-2.7064 9.22831,-4.0606 14.67578,-4.0606 z m 117.19727,0 c 10.44388,0 18.42453,2.7927 23.9414,8.3789 5.55157,5.5863 7.77243,12.9952 6.66211,22.2246 l -20.87109,0 c 0.0694,-3.9554 -0.95378,-7.1653 -3.07031,-9.6288 -2.08184,-2.4636 -5.13527,-3.6954 -9.16016,-3.6954 -5.20459,0 -9.7165,2.0644 -13.5332,6.1934 -3.81671,4.129 -6.33247,9.975 -7.54688,17.5391 -1.2838,7.6334 -0.72809,13.5496 1.66602,17.748 2.42881,4.1637 6.22854,6.2461 11.39844,6.2461 3.8514,0 7.26994,-1.1616 10.2539,-3.4863 2.98397,-2.3247 5.16876,-5.6049 6.55664,-9.8379 l 20.92188,0 c -1.38789,6.1067 -3.95386,11.4853 -7.70117,16.1347 -3.74731,4.6495 -8.43178,8.2747 -14.05274,10.877 -5.62096,2.5676 -11.98861,3.8516 -19.10156,3.8516 -8.18856,0 -14.93741,-1.7354 -20.24609,-5.2051 -5.30869,-3.5044 -9.02019,-8.3615 -11.13672,-14.5723 -2.08184,-6.2108 -2.44695,-13.3589 -1.09375,-21.4433 1.3185,-8.1886 4.07701,-15.3708 8.27539,-21.5469 4.23306,-6.2108 9.57755,-11.0498 16.03125,-14.5195 6.45369,-3.5045 13.72216,-5.2579 21.80664,-5.2579 z m -359.09961,11.0332 c -4.47595,0 -8.67491,1.1797 -12.5957,3.5391 -3.8861,2.3247 -7.18229,5.2919 -9.88868,8.9004 -2.671686,3.6085 -4.405084,7.3039 -5.203121,11.0859 l 45.591801,0 c 1.1797,-6.7659 0.15653,-12.3693 -3.07032,-16.8105 -3.19215,-4.476 -8.1374,-6.7149 -14.83398,-6.7149 z m 436.74023,6.6114 c -5.34338,0 -9.8353,2.1165 -13.47851,6.3496 -3.64322,4.1983 -6.03859,9.8699 -7.1836,17.0176 -1.14501,7.1129 -0.62342,12.8386 1.5625,17.1757 2.22063,4.3025 6.00232,6.4532 11.34571,6.4532 5.48217,0 9.99213,-2.1848 13.53125,-6.5567 3.57382,-4.4065 5.96919,-10.0981 7.18359,-17.0722 1.11031,-6.9395 0.58873,-12.5589 -1.5625,-16.8614 -2.11654,-4.3371 -5.91626,-6.5058 -11.39844,-6.5058 z m -348.5332,23.1601 c -0.62455,0.6246 -1.85635,1.1964 -3.69531,1.7168 -1.83896,0.4858 -3.92138,0.9191 -6.2461,1.3008 -2.29002,0.347 -4.52695,0.6599 -6.71289,0.9375 -2.15123,0.2429 -3.88657,0.4515 -5.20508,0.625 -3.26154,0.4164 -6.36713,1.0925 -9.3164,2.0293 -2.91457,0.9021 -5.37819,2.2724 -7.39063,4.1113 -1.97774,1.8043 -3.20955,4.2679 -3.69531,7.3906 -0.72865,4.2678 0.29453,7.4958 3.07031,9.6817 2.77578,2.1512 6.60964,3.2266 11.50196,3.2266 4.85762,0 9.10873,-0.955 12.75195,-2.8633 3.67791,-1.9084 6.62703,-4.372 8.84766,-7.3907 2.25532,-3.0186 3.66163,-6.1925 4.21679,-9.5234 l 1.87305,-11.2422 z"
       style="fill:#ffffff;fill-opacity:1;stroke:none;stroke-opacity:1"
       inkscape:connector-curvature="0" />
    <path
       inkscape:export-ydpi="90"
       inkscape:export-xdpi="90"
       id="path4215"
       d="m -11.5,1142.3622 0,140 525.58984,0 18.30274,-109.8165 21.85937,0 -2.18554,13.4278 0.9375,0 c 1.3185,-2.1859 3.08796,-4.3888 5.30859,-6.6094 2.25532,-2.2206 5.01384,-4.0764 8.27539,-5.5684 3.29625,-1.5266 7.16422,-2.291 11.60547,-2.291 5.86384,0 10.98165,1.5268 15.35352,4.5801 4.40655,3.0187 7.58038,7.5808 9.52343,13.6875 1.94305,6.072 2.15168,13.6895 0.625,22.8496 -1.45728,8.9172 -4.14561,16.4465 -8.0664,22.5879 -3.8861,6.1067 -8.55253,10.739 -14,13.8965 -5.41278,3.1227 -11.15649,4.6836 -17.22852,4.6836 -4.30246,0 -7.82337,-0.7122 -10.56445,-2.1348 -2.74109,-1.4226 -4.89175,-3.2081 -6.45313,-5.3594 -1.52668,-2.1859 -2.62005,-4.3907 -3.27929,-6.6113 l -0.78125,0 -7.06055,42.6778 98.23828,0 0,-140 -646,0 z m 72.05859,29.1425 c 7.91099,0 13.8253,1.7354 17.7461,5.2051 3.92079,3.435 6.40244,8.0152 7.44336,13.7402 l -11.65821,3.1231 c -0.41636,-1.8737 -1.14462,-3.6792 -2.18554,-5.4141 -1.00622,-1.7695 -2.56706,-3.208 -4.6836,-4.3183 -2.08183,-1.145 -4.92859,-1.7188 -8.53711,-1.7188 -4.89232,0 -9.14148,1.1275 -12.75,3.3828 -3.60852,2.2207 -5.6729,5.0494 -6.19336,8.4844 -0.52046,3.0187 0.17368,5.4301 2.08204,7.2344 1.90835,1.8042 5.10022,3.2788 9.57617,4.4238 l 11.44922,2.9141 c 13.60134,3.5044 19.49957,10.7227 17.69531,21.6523 -0.76334,4.5801 -2.75753,8.6728 -5.98438,12.2813 -3.22685,3.6085 -7.35561,6.4552 -12.38672,8.5371 -5.0311,2.0818 -10.63442,3.1211 -16.81054,3.1211 -8.22326,0 -14.71327,-1.7695 -19.4668,-5.3086 -4.75353,-3.5738 -7.28538,-8.7438 -7.59765,-15.5098 l 12.2832,-2.9141 c 0.62455,8.605 6.03728,12.9083 16.23828,12.9083 5.72505,0 10.4958,-1.2158 14.3125,-3.6446 3.8167,-2.4635 5.9854,-5.4126 6.50586,-8.8476 1.04092,-5.6557 -2.29134,-9.4033 -9.99414,-11.2422 l -12.69922,-3.1211 c -7.07825,-1.7696 -12.03959,-4.4759 -14.88477,-8.1191 -2.81048,-3.6433 -3.74737,-8.2234 -2.81054,-13.7403 0.76334,-4.5106 2.70732,-8.501 5.83007,-11.9707 3.15746,-3.4697 7.11171,-6.1941 11.86524,-8.1719 4.78823,-1.9777 9.99427,-2.9668 15.61523,-2.9668 z m 72.66993,0 c 4.16367,0 8.17203,0.6942 12.02343,2.0821 3.8514,1.3879 7.18171,3.6428 9.99219,6.7656 2.81048,3.0881 4.77055,7.1827 5.88086,12.2832 1.11031,5.1005 1.04207,11.3799 -0.20703,18.8398 l -0.83399,5.2051 -58.13476,0 c -1.49199,9.7846 -0.34646,16.6378 3.43555,20.5586 3.782,3.9208 9.52376,5.8809 17.22656,5.8809 4.92701,0 9.26441,-1.0412 13.01172,-3.1231 3.782,-2.0818 6.80131,-5.2035 9.05664,-9.3672 l 11.24219,3.3301 c -2.87989,6.0373 -7.4259,10.9124 -13.63672,14.625 -6.21082,3.7126 -13.39301,5.5684 -21.54688,5.5684 -7.6681,0 -13.99968,-1.6993 -18.99609,-5.0996 -4.99641,-3.4351 -8.48515,-8.2238 -10.46289,-14.3653 -1.97775,-6.1761 -2.28875,-13.3583 -0.93555,-21.5468 1.35319,-8.1886 4.04152,-15.4049 8.06641,-21.6504 4.02488,-6.2802 9.03838,-11.1733 15.04101,-14.6778 6.00264,-3.5391 12.59501,-5.3086 19.77735,-5.3086 z m 75.92382,0 c 2.5676,0 5.46651,0.313 8.69336,0.9375 3.22685,0.5899 6.24421,1.8217 9.05469,3.6953 2.84518,1.8737 4.97976,4.7005 6.40234,8.4825 1.45729,3.782 1.66592,8.8476 0.625,15.1972 l -8.74414,52.6719 -12.2832,0 1.87305,-10.8262 -0.62305,0 c -1.11031,1.7349 -2.81154,3.5906 -5.10156,5.5684 -2.25532,1.9777 -5.11816,3.6609 -8.58789,5.0488 -3.43504,1.3879 -7.47752,2.0821 -12.12696,2.0821 -5.0658,0 -9.50556,-0.955 -13.32226,-2.8633 -3.81671,-1.9431 -6.64542,-4.7357 -8.48438,-8.3789 -1.83896,-3.6779 -2.3425,-8.1196 -1.50976,-13.3243 0.79803,-4.58 2.34279,-8.2915 4.63281,-11.1367 2.29003,-2.8798 5.06658,-5.1348 8.32813,-6.7656 3.29624,-1.6655 6.83518,-2.8973 10.61718,-3.6953 3.8167,-0.8327 7.61448,-1.4747 11.39649,-1.9258 4.92701,-0.6245 8.93538,-1.11 12.02343,-1.457 3.08806,-0.347 5.41323,-0.9207 6.97461,-1.7188 1.56138,-0.798 2.51436,-2.1682 2.86133,-4.1113 l 0,-0.416 c 0.83274,-5.1005 0.15664,-9.0728 -2.02929,-11.918 -2.18593,-2.8798 -6.08803,-4.3203 -11.70899,-4.3203 -5.82915,0 -10.70421,1.284 -14.625,3.8516 -3.9208,2.5676 -6.8197,5.3081 -8.69336,8.2226 l -10.82422,-4.164 c 2.84518,-4.8576 6.24569,-8.6393 10.20118,-11.3457 3.95549,-2.7411 8.10033,-4.649 12.4375,-5.7247 4.33716,-1.1103 8.51808,-1.666 12.54296,-1.666 z m 80.34961,0 c 8.01508,0 14.10391,2.4817 18.26758,7.4434 4.19837,4.9617 5.4643,12.5431 3.79883,22.7441 l -8.53516,50.7969 -12.2832,0 8.32812,-49.9648 c 1.04093,-6.2455 0.22443,-11.1386 -2.44726,-14.6778 -2.63699,-3.5391 -6.81792,-5.3086 -12.54297,-5.3086 -5.93324,0 -11.13733,1.9099 -15.61328,5.7266 -4.44125,3.782 -7.28605,9.1587 -8.53516,16.1328 l -7.91211,48.0918 -12.28125,0 13.32227,-79.9434 11.86719,0 -2.08203,12.4922 1.04101,0 c 2.49821,-4.0595 5.88067,-7.3216 10.14844,-9.7851 4.26777,-2.4982 9.42165,-3.7481 15.45898,-3.7481 z m 83.75586,0 c 5.41278,0 9.82037,1.3703 13.22071,4.1114 3.40033,2.7063 5.37648,6.3857 5.93164,11.0351 l 0.83398,0 c 2.35942,-4.6147 5.9164,-8.2941 10.66992,-11.0351 4.75353,-2.7411 10.06194,-4.1114 15.92578,-4.1114 7.39052,0 13.046,2.3774 16.9668,7.1309 3.92079,4.7188 5.1526,11.4155 3.69531,20.0898 l -8.95312,53.7637 -22.16992,0 8.32617,-49.3926 c 0.69394,-4.4412 0.0359,-7.7715 -1.97656,-9.9922 -1.97775,-2.2206 -4.73626,-3.332 -8.2754,-3.332 -4.02487,0 -7.37322,1.284 -10.04492,3.8516 -2.67169,2.5329 -4.32076,5.8812 -4.94531,10.0449 l -8.27539,48.8203 -21.49414,0 8.43164,-49.8613 c 0.58985,-3.9208 -0.0521,-7.0425 -1.92578,-9.3672 -1.83896,-2.3247 -4.59748,-3.4883 -8.27539,-3.4883 -3.67792,0 -6.99214,1.3542 -9.94141,4.0606 -2.91457,2.6717 -4.70208,6.2286 -5.36133,10.6699 l -8.11914,47.9863 -22.11914,0 13.32422,-79.9434 21.07813,0 -2.28907,14.1055 0.88477,0 c 2.46351,-4.7188 5.864,-8.4142 10.20117,-11.0859 4.33716,-2.7064 9.22831,-4.0606 14.67578,-4.0606 z m 117.19727,0 c 10.44388,0 18.42453,2.7927 23.9414,8.3789 5.55157,5.5863 7.77243,12.9952 6.66211,22.2246 l -20.87109,0 c 0.0694,-3.9554 -0.95378,-7.1653 -3.07031,-9.6288 -2.08184,-2.4636 -5.13527,-3.6954 -9.16016,-3.6954 -5.20459,0 -9.7165,2.0644 -13.5332,6.1934 -3.81671,4.129 -6.33247,9.975 -7.54688,17.5391 -1.2838,7.6334 -0.72809,13.5496 1.66602,17.748 2.42881,4.1637 6.22854,6.2461 11.39844,6.2461 3.8514,0 7.26994,-1.1616 10.2539,-3.4863 2.98397,-2.3247 5.16876,-5.6049 6.55664,-9.8379 l 20.92188,0 c -1.38789,6.1067 -3.95386,11.4853 -7.70117,16.1347 -3.74731,4.6495 -8.43178,8.2747 -14.05274,10.877 -5.62096,2.5676 -11.98861,3.8516 -19.10156,3.8516 -8.18856,0 -14.93741,-1.7354 -20.24609,-5.2051 -5.30869,-3.5044 -9.02019,-8.3615 -11.13672,-14.5723 -2.08184,-6.2108 -2.44695,-13.3589 -1.09375,-21.4433 1.3185,-8.1886 4.07701,-15.3708 8.27539,-21.5469 4.23306,-6.2108 9.57755,-11.0498 16.03125,-14.5195 6.45369,-3.5045 13.72216,-5.2579 21.80664,-5.2579 z m -359.09961,11.0332 c -4.47595,0 -8.67491,1.1797 -12.5957,3.5391 -3.8861,2.3247 -7.18229,5.2919 -9.88868,8.9004 -2.67169,3.6085 -4.40508,7.3039 -5.20312,11.0859 l 45.5918,0 c 1.1797,-6.7659 0.15653,-12.3693 -3.07032,-16.8105 -3.19215,-4.476 -8.1374,-6.7149 -14.83398,-6.7149 z m 436.74023,6.6114 c -5.34338,0 -9.8353,2.1165 -13.47851,6.3496 -3.64322,4.1983 -6.03859,9.8699 -7.1836,17.0176 -1.14501,7.1129 -0.62342,12.8386 1.5625,17.1757 2.22063,4.3025 6.00232,6.4532 11.34571,6.4532 5.48217,0 9.99213,-2.1848 13.53125,-6.5567 3.57382,-4.4065 5.96919,-10.0981 7.18359,-17.0722 1.11031,-6.9395 0.58873,-12.5589 -1.5625,-16.8614 -2.11654,-4.3371 -5.91626,-6.5058 -11.39844,-6.5058 z m -348.5332,23.1601 c -0.62455,0.6246 -1.85635,1.1964 -3.69531,1.7168 -1.83896,0.4858 -3.92138,0.9191 -6.2461,1.3008 -2.29002,0.347 -4.52695,0.6599 -6.71289,0.9375 -2.15123,0.2429 -3.88657,0.4515 -5.20508,0.625 -3.26154,0.4164 -6.36713,1.0925 -9.3164,2.0293 -2.91457,0.9021 -5.37819,2.2724 -7.39063,4.1113 -1.97774,1.8043 -3.20955,4.2679 -3.69531,7.3906 -0.72865,4.2678 0.29453,7.4958 3.07031,9.6817 2.77578,2.1512 6.60964,3.2266 11.50196,3.2266 4.85762,0 9.10873,-0.955 12.75195,-2.8633 3.67791,-1.9084 6.62703,-4.372 8.84766,-7.3907 2.25532,-3.0186 3.66163,-6.1925 4.21679,-9.5234 l 1.87305,-11.2422 z"
       style="fill:#0077c2;fill-opacity:1;stroke:none;stroke-opacity:1"
       inkscape:connector-curvature="0" />
  </g>
</svg>
